<svg id="visual" viewBox="0 0 900 600" width="900" height="600" xmlns="http://www.w3.org/2000/svg" xmlns:xlink="http://www.w3.org/1999/xlink" version="1.1"><g stroke-width="1" stroke-linejoin="bevel"><path d="M449 293L455 315L497.3 320Z" fill="#081a28" stroke="#081a28"></path><path d="M455 315L476.3 351L497.3 320Z" fill="#19435d" stroke="#19435d"></path><path d="M476.3 351L546.6 350L497.3 320Z" fill="#00101c" stroke="#00101c"></path><path d="M534.3 207L449 293L497.3 320Z" fill="#19435d" stroke="#19435d"></path><path d="M524.6 184L397 255L449 293Z" fill="#112e42" stroke="#112e42"></path><path d="M449 293L363.4 367L455 315Z" fill="#00101c" stroke="#00101c"></path><path d="M363.4 367L464.3 410L476.3 351Z" fill="#081a28" stroke="#081a28"></path><path d="M417 137L390.7 251L397 255Z" fill="#19435d" stroke="#19435d"></path><path d="M363.4 367L476.3 351L455 315Z" fill="#081a28" stroke="#081a28"></path><path d="M546.6 350L534.3 207L497.3 320Z" fill="#19435d" stroke="#19435d"></path><path d="M363.4 367L449 293L397 255Z" fill="#19435d" stroke="#19435d"></path><path d="M476.3 351L464.3 410L546.6 350Z" fill="#297ea6" stroke="#297ea6"></path><path d="M534.3 207L524.6 184L449 293Z" fill="#1d4e6b" stroke="#1d4e6b"></path><path d="M604.9 383L587.6 360L546.6 350Z" fill="#00101c" stroke="#00101c"></path><path d="M546.6 350L603.9 208L534.3 207Z" fill="#19435d" stroke="#19435d"></path><path d="M323.4 282L363.4 367L397 255Z" fill="#0c2435" stroke="#0c2435"></path><path d="M347.4 194L350.7 232L390.7 251Z" fill="#112e42" stroke="#112e42"></path><path d="M390.7 251L323.4 282L397 255Z" fill="#00101c" stroke="#00101c"></path><path d="M604.9 383L612.9 359L587.6 360Z" fill="#0c2435" stroke="#0c2435"></path><path d="M623.9 348L603.9 208L546.6 350Z" fill="#297ea6" stroke="#297ea6"></path><path d="M534.3 207L606.6 201L524.6 184Z" fill="#15384f" stroke="#15384f"></path><path d="M363.4 367L410 433L464.3 410Z" fill="#1d4e6b" stroke="#1d4e6b"></path><path d="M597.9 444L604.9 383L546.6 350Z" fill="#246688" stroke="#246688"></path><path d="M597.9 444L546.6 350L561.6 468Z" fill="#00101c" stroke="#00101c"></path><path d="M623.9 348L546.6 350L587.6 360Z" fill="#205a7a" stroke="#205a7a"></path><path d="M663.1 355L623.9 348L612.9 359Z" fill="#277297" stroke="#277297"></path><path d="M612.9 359L623.9 348L587.6 360Z" fill="#19435d" stroke="#19435d"></path><path d="M350.7 232L323.4 282L390.7 251Z" fill="#205a7a" stroke="#205a7a"></path><path d="M640.9 208L606.6 201L603.9 208Z" fill="#205a7a" stroke="#205a7a"></path><path d="M603.9 208L606.6 201L534.3 207Z" fill="#277297" stroke="#277297"></path><path d="M280.1 326L355.7 407L363.4 367Z" fill="#081a28" stroke="#081a28"></path><path d="M363.4 367L355.7 407L410 433Z" fill="#081a28" stroke="#081a28"></path><path d="M417 137L347.4 194L390.7 251Z" fill="#112e42" stroke="#112e42"></path><path d="M350.7 232L296.1 230L323.4 282Z" fill="#297ea6" stroke="#297ea6"></path><path d="M534.6 92L488.3 127L524.6 184Z" fill="#1d4e6b" stroke="#1d4e6b"></path><path d="M524.6 184L417 137L397 255Z" fill="#112e42" stroke="#112e42"></path><path d="M488.3 127L417 137L524.6 184Z" fill="#15384f" stroke="#15384f"></path><path d="M473 70L411 130L417 137Z" fill="#00101c" stroke="#00101c"></path><path d="M417 137L359.7 156L347.4 194Z" fill="#277297" stroke="#277297"></path><path d="M411 130L359.7 156L417 137Z" fill="#277297" stroke="#277297"></path><path d="M623.9 348L640.9 208L603.9 208Z" fill="#297ea6" stroke="#297ea6"></path><path d="M564.6 80L534.6 92L524.6 184Z" fill="#00101c" stroke="#00101c"></path><path d="M331.4 64L355.7 157L359.7 156Z" fill="#1d4e6b" stroke="#1d4e6b"></path><path d="M359.7 156L355.7 157L347.4 194Z" fill="#205a7a" stroke="#205a7a"></path><path d="M347.4 194L296.1 230L350.7 232Z" fill="#081a28" stroke="#081a28"></path><path d="M463.3 509L487 485L410 433Z" fill="#246688" stroke="#246688"></path><path d="M410 433L487 485L464.3 410Z" fill="#00101c" stroke="#00101c"></path><path d="M561.6 468L546.6 350L464.3 410Z" fill="#19435d" stroke="#19435d"></path><path d="M673.1 377L663.1 355L612.9 359Z" fill="#277297" stroke="#277297"></path><path d="M355.7 407L373.7 455L410 433Z" fill="#246688" stroke="#246688"></path><path d="M487 485L561.6 468L464.3 410Z" fill="#277297" stroke="#277297"></path><path d="M673.1 377L612.9 359L604.9 383Z" fill="#19435d" stroke="#19435d"></path><path d="M623.9 348L696.1 263L640.9 208Z" fill="#246688" stroke="#246688"></path><path d="M253.1 209L296.1 230L347.4 194Z" fill="#15384f" stroke="#15384f"></path><path d="M283.1 466L347.7 448L355.7 407Z" fill="#246688" stroke="#246688"></path><path d="M280.1 326L363.4 367L323.4 282Z" fill="#0c2435" stroke="#0c2435"></path><path d="M355.7 407L347.7 448L373.7 455Z" fill="#00101c" stroke="#00101c"></path><path d="M271.4 284L280.1 326L323.4 282Z" fill="#277297" stroke="#277297"></path><path d="M296.1 230L271.4 284L323.4 282Z" fill="#297ea6" stroke="#297ea6"></path><path d="M347.7 448L382.7 484L373.7 455Z" fill="#081a28" stroke="#081a28"></path><path d="M373.7 455L382.7 484L410 433Z" fill="#205a7a" stroke="#205a7a"></path><path d="M597.9 444L673.1 377L604.9 383Z" fill="#0c2435" stroke="#0c2435"></path><path d="M663.1 355L696.1 263L623.9 348Z" fill="#15384f" stroke="#15384f"></path><path d="M564.6 80L524.6 184L606.6 201Z" fill="#112e42" stroke="#112e42"></path><path d="M488.3 127L473 70L417 137Z" fill="#277297" stroke="#277297"></path><path d="M382.7 484L463.3 509L410 433Z" fill="#081a28" stroke="#081a28"></path><path d="M563.3 506L583.6 493L561.6 468Z" fill="#081a28" stroke="#081a28"></path><path d="M534.6 92L495.3 84L488.3 127Z" fill="#15384f" stroke="#15384f"></path><path d="M411 130L365.7 54L359.7 156Z" fill="#1d4e6b" stroke="#1d4e6b"></path><path d="M722.1 367L696.1 263L663.1 355Z" fill="#0c2435" stroke="#0c2435"></path><path d="M694.9 125L564.6 80L606.6 201Z" fill="#246688" stroke="#246688"></path><path d="M561.6 468L583.6 493L597.9 444Z" fill="#112e42" stroke="#112e42"></path><path d="M597.9 444L618.6 472L673.1 377Z" fill="#0c2435" stroke="#0c2435"></path><path d="M563.3 506L561.6 468L487 485Z" fill="#297ea6" stroke="#297ea6"></path><path d="M583.6 493L618.6 472L597.9 444Z" fill="#297ea6" stroke="#297ea6"></path><path d="M487 585L563.3 506L487 485Z" fill="#277297" stroke="#277297"></path><path d="M583.6 493L628.9 514L618.6 472Z" fill="#0c2435" stroke="#0c2435"></path><path d="M458.3 7L473 70L503 0Z" fill="#15384f" stroke="#15384f"></path><path d="M495.3 84L473 70L488.3 127Z" fill="#00101c" stroke="#00101c"></path><path d="M694.9 125L606.6 201L640.9 208Z" fill="#0c2435" stroke="#0c2435"></path><path d="M516.3 0L503 0L495.3 84Z" fill="#19435d" stroke="#19435d"></path><path d="M355.7 157L253.1 209L347.4 194Z" fill="#19435d" stroke="#19435d"></path><path d="M296.1 230L223.9 249L271.4 284Z" fill="#081a28" stroke="#081a28"></path><path d="M271.4 467L283.1 466L229.1 396Z" fill="#246688" stroke="#246688"></path><path d="M275.1 86L253.1 209L355.7 157Z" fill="#15384f" stroke="#15384f"></path><path d="M745.4 415L722.1 367L673.1 377Z" fill="#081a28" stroke="#081a28"></path><path d="M673.1 377L722.1 367L663.1 355Z" fill="#112e42" stroke="#112e42"></path><path d="M229.1 396L283.1 466L355.7 407Z" fill="#1d4e6b" stroke="#1d4e6b"></path><path d="M347.7 448L301.1 515L382.7 484Z" fill="#205a7a" stroke="#205a7a"></path><path d="M464.3 600L487 585L463.3 509Z" fill="#297ea6" stroke="#297ea6"></path><path d="M175.9 278L280.1 326L271.4 284Z" fill="#0c2435" stroke="#0c2435"></path><path d="M253.1 209L223.9 249L296.1 230Z" fill="#00101c" stroke="#00101c"></path><path d="M563.3 506L628.9 514L583.6 493Z" fill="#081a28" stroke="#081a28"></path><path d="M723.4 473L745.4 415L673.1 377Z" fill="#00101c" stroke="#00101c"></path><path d="M598.6 600L628.9 514L563.3 506Z" fill="#297ea6" stroke="#297ea6"></path><path d="M458.3 7L365.7 54L473 70Z" fill="#205a7a" stroke="#205a7a"></path><path d="M473 70L365.7 54L411 130Z" fill="#277297" stroke="#277297"></path><path d="M186.9 209L175.9 278L223.9 249Z" fill="#112e42" stroke="#112e42"></path><path d="M229.1 396L355.7 407L280.1 326Z" fill="#19435d" stroke="#19435d"></path><path d="M283.1 466L286.1 495L347.7 448Z" fill="#112e42" stroke="#112e42"></path><path d="M157.6 324L229.1 396L280.1 326Z" fill="#205a7a" stroke="#205a7a"></path><path d="M365.7 54L331.4 64L359.7 156Z" fill="#15384f" stroke="#15384f"></path><path d="M741.1 202L640.9 208L696.1 263Z" fill="#277297" stroke="#277297"></path><path d="M741.1 202L694.9 125L640.9 208Z" fill="#19435d" stroke="#19435d"></path><path d="M281.4 505L286.1 495L271.4 467Z" fill="#277297" stroke="#277297"></path><path d="M271.4 467L286.1 495L283.1 466Z" fill="#00101c" stroke="#00101c"></path><path d="M791.4 216L741.1 202L799.4 252Z" fill="#15384f" stroke="#15384f"></path><path d="M286.1 495L301.1 515L347.7 448Z" fill="#19435d" stroke="#19435d"></path><path d="M463.3 509L487 585L487 485Z" fill="#0c2435" stroke="#0c2435"></path><path d="M218.9 449L281.4 505L271.4 467Z" fill="#081a28" stroke="#081a28"></path><path d="M286.1 495L281.4 505L301.1 515Z" fill="#00101c" stroke="#00101c"></path><path d="M486 600L487 585L464.3 600Z" fill="#081a28" stroke="#081a28"></path><path d="M495.3 84L534.6 92L516.3 0Z" fill="#277297" stroke="#277297"></path><path d="M503 0L473 70L495.3 84Z" fill="#277297" stroke="#277297"></path><path d="M335.4 9L299.1 62L331.4 64Z" fill="#112e42" stroke="#112e42"></path><path d="M723.4 473L673.1 377L618.6 472Z" fill="#246688" stroke="#246688"></path><path d="M799.4 252L741.1 202L696.1 263Z" fill="#081a28" stroke="#081a28"></path><path d="M299.1 62L275.1 86L331.4 64Z" fill="#19435d" stroke="#19435d"></path><path d="M331.4 64L275.1 86L355.7 157Z" fill="#112e42" stroke="#112e42"></path><path d="M335.4 9L331.4 64L365.7 54Z" fill="#15384f" stroke="#15384f"></path><path d="M516.3 0L534.6 92L547.6 0Z" fill="#246688" stroke="#246688"></path><path d="M547.6 0L534.6 92L564.6 80Z" fill="#15384f" stroke="#15384f"></path><path d="M176.9 424L218.9 449L229.1 396Z" fill="#277297" stroke="#277297"></path><path d="M229.1 396L218.9 449L271.4 467Z" fill="#00101c" stroke="#00101c"></path><path d="M694.1 510L723.4 473L618.6 472Z" fill="#19435d" stroke="#19435d"></path><path d="M694.1 510L618.6 472L628.9 514Z" fill="#19435d" stroke="#19435d"></path><path d="M671.9 600L694.1 510L628.9 514Z" fill="#277297" stroke="#277297"></path><path d="M186.9 209L223.9 249L253.1 209Z" fill="#00101c" stroke="#00101c"></path><path d="M223.9 249L175.9 278L271.4 284Z" fill="#00101c" stroke="#00101c"></path><path d="M464.3 600L463.3 509L385.7 600Z" fill="#0c2435" stroke="#0c2435"></path><path d="M487 585L598.6 600L563.3 506Z" fill="#15384f" stroke="#15384f"></path><path d="M385.7 600L463.3 509L382.7 484Z" fill="#1d4e6b" stroke="#1d4e6b"></path><path d="M385.7 600L382.7 484L301.1 515Z" fill="#081a28" stroke="#081a28"></path><path d="M229.9 108L186.9 209L253.1 209Z" fill="#205a7a" stroke="#205a7a"></path><path d="M610.9 0L547.6 0L564.6 80Z" fill="#15384f" stroke="#15384f"></path><path d="M157.6 324L181.9 390L229.1 396Z" fill="#112e42" stroke="#112e42"></path><path d="M179.6 83L229.9 108L275.1 86Z" fill="#246688" stroke="#246688"></path><path d="M275.1 86L229.9 108L253.1 209Z" fill="#00101c" stroke="#00101c"></path><path d="M218.9 449L275.4 537L281.4 505Z" fill="#297ea6" stroke="#297ea6"></path><path d="M281.4 505L275.4 537L301.1 515Z" fill="#081a28" stroke="#081a28"></path><path d="M503 0L366.7 0L458.3 7Z" fill="#00101c" stroke="#00101c"></path><path d="M458.3 7L366.7 0L365.7 54Z" fill="#00101c" stroke="#00101c"></path><path d="M299.1 62L150.9 0L275.1 86Z" fill="#00101c" stroke="#00101c"></path><path d="M308.4 600L385.7 600L301.1 515Z" fill="#297ea6" stroke="#297ea6"></path><path d="M736.1 92L657.9 35L694.9 125Z" fill="#277297" stroke="#277297"></path><path d="M694.9 125L657.9 35L564.6 80Z" fill="#0c2435" stroke="#0c2435"></path><path d="M366.7 0L335.4 9L365.7 54Z" fill="#277297" stroke="#277297"></path><path d="M175.9 278L157.6 324L280.1 326Z" fill="#1d4e6b" stroke="#1d4e6b"></path><path d="M152.6 280L157.6 324L175.9 278Z" fill="#0c2435" stroke="#0c2435"></path><path d="M799.4 252L696.1 263L815.4 287Z" fill="#15384f" stroke="#15384f"></path><path d="M741.1 94L736.1 92L694.9 125Z" fill="#1d4e6b" stroke="#1d4e6b"></path><path d="M815.4 287L696.1 263L722.1 367Z" fill="#246688" stroke="#246688"></path><path d="M657.9 35L610.9 0L564.6 80Z" fill="#00101c" stroke="#00101c"></path><path d="M486 600L598.6 600L487 585Z" fill="#19435d" stroke="#19435d"></path><path d="M151.6 187L152.6 280L186.9 209Z" fill="#1d4e6b" stroke="#1d4e6b"></path><path d="M186.9 209L152.6 280L175.9 278Z" fill="#112e42" stroke="#112e42"></path><path d="M106.6 455L176.9 424L181.9 390Z" fill="#112e42" stroke="#112e42"></path><path d="M181.9 390L176.9 424L229.1 396Z" fill="#112e42" stroke="#112e42"></path><path d="M218.9 449L152.9 532L275.4 537Z" fill="#00101c" stroke="#00101c"></path><path d="M366.7 0L337.4 0L335.4 9Z" fill="#297ea6" stroke="#297ea6"></path><path d="M335.4 9L311.1 0L299.1 62Z" fill="#081a28" stroke="#081a28"></path><path d="M741.1 94L694.9 125L741.1 202Z" fill="#00101c" stroke="#00101c"></path><path d="M657.9 35L686.1 0L610.9 0Z" fill="#297ea6" stroke="#297ea6"></path><path d="M806.7 204L741.1 94L741.1 202Z" fill="#00101c" stroke="#00101c"></path><path d="M736.1 92L686.1 0L657.9 35Z" fill="#205a7a" stroke="#205a7a"></path><path d="M844.7 315L815.4 287L722.1 367Z" fill="#081a28" stroke="#081a28"></path><path d="M799.4 252L806.7 204L791.4 216Z" fill="#112e42" stroke="#112e42"></path><path d="M844.7 315L722.1 367L745.4 415Z" fill="#00101c" stroke="#00101c"></path><path d="M740.4 560L771.4 465L723.4 473Z" fill="#081a28" stroke="#081a28"></path><path d="M723.4 473L771.4 465L745.4 415Z" fill="#205a7a" stroke="#205a7a"></path><path d="M798.7 467L771.4 465L759.1 565Z" fill="#00101c" stroke="#00101c"></path><path d="M337.4 0L311.1 0L335.4 9Z" fill="#297ea6" stroke="#297ea6"></path><path d="M836.7 262L806.7 204L799.4 252Z" fill="#112e42" stroke="#112e42"></path><path d="M791.4 216L806.7 204L741.1 202Z" fill="#297ea6" stroke="#297ea6"></path><path d="M229.9 108L151.6 187L186.9 209Z" fill="#00101c" stroke="#00101c"></path><path d="M179.6 83L151.6 187L229.9 108Z" fill="#0c2435" stroke="#0c2435"></path><path d="M275.4 537L308.4 600L301.1 515Z" fill="#277297" stroke="#277297"></path><path d="M221.1 600L308.4 600L275.4 537Z" fill="#205a7a" stroke="#205a7a"></path><path d="M598.6 600L671.9 600L628.9 514Z" fill="#205a7a" stroke="#205a7a"></path><path d="M844.7 315L836.7 262L815.4 287Z" fill="#277297" stroke="#277297"></path><path d="M815.4 287L836.7 262L799.4 252Z" fill="#112e42" stroke="#112e42"></path><path d="M671.9 600L674.1 600L694.1 510Z" fill="#246688" stroke="#246688"></path><path d="M808.4 16L736.1 92L741.1 94Z" fill="#00101c" stroke="#00101c"></path><path d="M808.4 16L686.1 0L736.1 92Z" fill="#205a7a" stroke="#205a7a"></path><path d="M740.4 560L723.4 473L694.1 510Z" fill="#0c2435" stroke="#0c2435"></path><path d="M771.4 465L828.7 432L745.4 415Z" fill="#297ea6" stroke="#297ea6"></path><path d="M828.7 432L844.7 315L745.4 415Z" fill="#277297" stroke="#277297"></path><path d="M150.9 0L179.6 83L275.1 86Z" fill="#112e42" stroke="#112e42"></path><path d="M674.1 600L740.4 560L694.1 510Z" fill="#081a28" stroke="#081a28"></path><path d="M900 513L828.7 432L798.7 467Z" fill="#0c2435" stroke="#0c2435"></path><path d="M798.7 467L828.7 432L771.4 465Z" fill="#0c2435" stroke="#0c2435"></path><path d="M674.1 600L716.4 600L740.4 560Z" fill="#277297" stroke="#277297"></path><path d="M740.4 560L759.1 565L771.4 465Z" fill="#246688" stroke="#246688"></path><path d="M716.4 600L759.1 565L740.4 560Z" fill="#246688" stroke="#246688"></path><path d="M106.6 455L138.6 490L176.9 424Z" fill="#277297" stroke="#277297"></path><path d="M176.9 424L138.6 490L218.9 449Z" fill="#246688" stroke="#246688"></path><path d="M106.6 455L181.9 390L73.3 339Z" fill="#246688" stroke="#246688"></path><path d="M181.9 390L157.6 324L73.3 339Z" fill="#297ea6" stroke="#297ea6"></path><path d="M900 215L844.7 155L806.7 204Z" fill="#081a28" stroke="#081a28"></path><path d="M806.7 204L844.7 155L741.1 94Z" fill="#297ea6" stroke="#297ea6"></path><path d="M900 215L806.7 204L836.7 262Z" fill="#246688" stroke="#246688"></path><path d="M152.9 532L221.1 600L275.4 537Z" fill="#297ea6" stroke="#297ea6"></path><path d="M138.6 490L152.9 532L218.9 449Z" fill="#00101c" stroke="#00101c"></path><path d="M844.7 155L830.7 99L741.1 94Z" fill="#19435d" stroke="#19435d"></path><path d="M73.3 339L157.6 324L152.6 280Z" fill="#112e42" stroke="#112e42"></path><path d="M138.6 490L104.6 566L152.9 532Z" fill="#297ea6" stroke="#297ea6"></path><path d="M54.3 316L73.3 339L152.6 280Z" fill="#15384f" stroke="#15384f"></path><path d="M67.3 234L152.6 280L151.6 187Z" fill="#297ea6" stroke="#297ea6"></path><path d="M27.3 433L101.3 460L106.6 455Z" fill="#297ea6" stroke="#297ea6"></path><path d="M106.6 455L101.3 460L138.6 490Z" fill="#112e42" stroke="#112e42"></path><path d="M900 93L826.4 72L830.7 99Z" fill="#15384f" stroke="#15384f"></path><path d="M830.7 99L826.4 72L741.1 94Z" fill="#246688" stroke="#246688"></path><path d="M59.3 180L67.3 234L151.6 187Z" fill="#112e42" stroke="#112e42"></path><path d="M716.4 600L790.7 578L759.1 565Z" fill="#00101c" stroke="#00101c"></path><path d="M759.1 565L790.7 578L798.7 467Z" fill="#00101c" stroke="#00101c"></path><path d="M900 374L900 302L844.7 315Z" fill="#112e42" stroke="#112e42"></path><path d="M844.7 315L900 302L836.7 262Z" fill="#15384f" stroke="#15384f"></path><path d="M844.7 155L900 93L830.7 99Z" fill="#1d4e6b" stroke="#1d4e6b"></path><path d="M900 374L844.7 315L828.7 432Z" fill="#19435d" stroke="#19435d"></path><path d="M67.3 234L54.3 316L152.6 280Z" fill="#246688" stroke="#246688"></path><path d="M73.3 339L27.3 433L106.6 455Z" fill="#19435d" stroke="#19435d"></path><path d="M150.9 0L144.9 34L179.6 83Z" fill="#15384f" stroke="#15384f"></path><path d="M86.3 111L81.6 128L151.6 187Z" fill="#246688" stroke="#246688"></path><path d="M900 389L900 374L828.7 432Z" fill="#081a28" stroke="#081a28"></path><path d="M900 302L900 215L836.7 262Z" fill="#00101c" stroke="#00101c"></path><path d="M900 513L900 389L828.7 432Z" fill="#297ea6" stroke="#297ea6"></path><path d="M86.3 111L151.6 187L179.6 83Z" fill="#15384f" stroke="#15384f"></path><path d="M0 224L0 355L54.3 316Z" fill="#081a28" stroke="#081a28"></path><path d="M820.7 19L808.4 16L826.4 72Z" fill="#246688" stroke="#246688"></path><path d="M826.4 72L808.4 16L741.1 94Z" fill="#246688" stroke="#246688"></path><path d="M106.3 72L86.3 111L179.6 83Z" fill="#277297" stroke="#277297"></path><path d="M144.9 34L106.3 72L179.6 83Z" fill="#15384f" stroke="#15384f"></path><path d="M0 224L59.3 180L0 140Z" fill="#081a28" stroke="#081a28"></path><path d="M81.6 128L59.3 180L151.6 187Z" fill="#112e42" stroke="#112e42"></path><path d="M900 215L900 174L844.7 155Z" fill="#15384f" stroke="#15384f"></path><path d="M882.7 0L820.7 19L826.4 72Z" fill="#205a7a" stroke="#205a7a"></path><path d="M311.1 0L150.9 0L299.1 62Z" fill="#00101c" stroke="#00101c"></path><path d="M144.9 34L96.6 27L106.3 72Z" fill="#1d4e6b" stroke="#1d4e6b"></path><path d="M808.4 16L806.4 0L686.1 0Z" fill="#246688" stroke="#246688"></path><path d="M820.7 19L806.4 0L808.4 16Z" fill="#297ea6" stroke="#297ea6"></path><path d="M900 174L900 158L844.7 155Z" fill="#246688" stroke="#246688"></path><path d="M150.9 0L132.6 0L144.9 34Z" fill="#0c2435" stroke="#0c2435"></path><path d="M106.3 72L0 17L86.3 111Z" fill="#297ea6" stroke="#297ea6"></path><path d="M104.6 566L138.6 490L101.3 460Z" fill="#15384f" stroke="#15384f"></path><path d="M104.6 566L136.9 600L152.9 532Z" fill="#19435d" stroke="#19435d"></path><path d="M152.9 532L136.9 600L221.1 600Z" fill="#1d4e6b" stroke="#1d4e6b"></path><path d="M0 494L104.6 566L101.3 460Z" fill="#0c2435" stroke="#0c2435"></path><path d="M132.6 0L96.6 27L144.9 34Z" fill="#0c2435" stroke="#0c2435"></path><path d="M0 140L59.3 180L81.6 128Z" fill="#1d4e6b" stroke="#1d4e6b"></path><path d="M900 158L900 93L844.7 155Z" fill="#1d4e6b" stroke="#1d4e6b"></path><path d="M820.7 19L882.7 0L806.4 0Z" fill="#081a28" stroke="#081a28"></path><path d="M0 355L73.3 339L54.3 316Z" fill="#277297" stroke="#277297"></path><path d="M0 410L27.3 433L73.3 339Z" fill="#277297" stroke="#277297"></path><path d="M790.7 578L900 513L798.7 467Z" fill="#277297" stroke="#277297"></path><path d="M52.3 600L97.3 585L104.6 566Z" fill="#081a28" stroke="#081a28"></path><path d="M104.6 566L97.3 585L136.9 600Z" fill="#0c2435" stroke="#0c2435"></path><path d="M0 224L54.3 316L67.3 234Z" fill="#205a7a" stroke="#205a7a"></path><path d="M0 224L67.3 234L59.3 180Z" fill="#1d4e6b" stroke="#1d4e6b"></path><path d="M0 140L81.6 128L0 139Z" fill="#19435d" stroke="#19435d"></path><path d="M52.3 600L100.6 600L97.3 585Z" fill="#15384f" stroke="#15384f"></path><path d="M97.3 585L100.6 600L136.9 600Z" fill="#1d4e6b" stroke="#1d4e6b"></path><path d="M790.7 578L900 550L900 513Z" fill="#205a7a" stroke="#205a7a"></path><path d="M879.7 600L900 550L790.7 578Z" fill="#1d4e6b" stroke="#1d4e6b"></path><path d="M0 355L0 410L73.3 339Z" fill="#277297" stroke="#277297"></path><path d="M27.3 433L0 490L101.3 460Z" fill="#205a7a" stroke="#205a7a"></path><path d="M0 410L0 435L27.3 433Z" fill="#277297" stroke="#277297"></path><path d="M900 93L882.7 0L826.4 72Z" fill="#081a28" stroke="#081a28"></path><path d="M716.4 600L879.7 600L790.7 578Z" fill="#19435d" stroke="#19435d"></path><path d="M0 139L81.6 128L86.3 111Z" fill="#081a28" stroke="#081a28"></path><path d="M0 17L0 139L86.3 111Z" fill="#0c2435" stroke="#0c2435"></path><path d="M900 93L900 0L882.7 0Z" fill="#00101c" stroke="#00101c"></path><path d="M0 435L0 490L27.3 433Z" fill="#277297" stroke="#277297"></path><path d="M0 490L0 494L101.3 460Z" fill="#0c2435" stroke="#0c2435"></path><path d="M879.7 600L900 600L900 550Z" fill="#15384f" stroke="#15384f"></path><path d="M0 494L52.3 600L104.6 566Z" fill="#19435d" stroke="#19435d"></path><path d="M132.6 0L42.3 0L96.6 27Z" fill="#246688" stroke="#246688"></path><path d="M96.6 27L42.3 0L106.3 72Z" fill="#081a28" stroke="#081a28"></path><path d="M42.3 0L0 17L106.3 72Z" fill="#205a7a" stroke="#205a7a"></path><path d="M42.3 0L0 0L0 17Z" fill="#1d4e6b" stroke="#1d4e6b"></path><path d="M0 494L0 600L52.3 600Z" fill="#1d4e6b" stroke="#1d4e6b"></path></g></svg>